<?xml version="1.0" encoding="UTF-8" standalone="no"?>
<!-- Created with Inkscape (http://www.inkscape.org/) -->

<svg
   xmlns:dc="http://purl.org/dc/elements/1.1/"
   xmlns:cc="http://creativecommons.org/ns#"
   xmlns:rdf="http://www.w3.org/1999/02/22-rdf-syntax-ns#"
   xmlns:svg="http://www.w3.org/2000/svg"
   xmlns="http://www.w3.org/2000/svg"
   xmlns:xlink="http://www.w3.org/1999/xlink"
   xmlns:sodipodi="http://sodipodi.sourceforge.net/DTD/sodipodi-0.dtd"
   xmlns:inkscape="http://www.inkscape.org/namespaces/inkscape"
   version="1.1"
   width="120"
   height="120"
   id="svg2"
   inkscape:version="0.48.5 r10040"
   sodipodi:docname="120.svg">
  <sodipodi:namedview
     pagecolor="#ffffff"
     bordercolor="#666666"
     borderopacity="1"
     objecttolerance="10"
     gridtolerance="10"
     guidetolerance="10"
     inkscape:pageopacity="0"
     inkscape:pageshadow="2"
     inkscape:window-width="1920"
     inkscape:window-height="1044"
     id="namedview3137"
     showgrid="true"
     inkscape:zoom="1"
     inkscape:cx="71.449643"
     inkscape:cy="288.88503"
     inkscape:window-x="1920"
     inkscape:window-y="0"
     inkscape:window-maximized="1"
     inkscape:current-layer="svg2"
     inkscape:snap-bbox="true"
     showborder="false">
    <inkscape:grid
       type="xygrid"
       id="grid3935"
       empspacing="5"
       visible="true"
       enabled="true"
       snapvisiblegridlinesonly="true"
       spacingx="0.1px"
       spacingy="0.1px" />
  </sodipodi:namedview>
  <defs
     id="defs4">
    <linearGradient
       id="linearGradient4641">
      <stop
         style="stop-color:#1a1a1a;stop-opacity:0.27500001;"
         offset="0"
         id="stop4643" />
      <stop
         style="stop-color:#000000;stop-opacity:0;"
         offset="1"
         id="stop4645" />
    </linearGradient>
    <linearGradient
       id="linearGradient3911">
      <stop
         style="stop-color:#ffffff;stop-opacity:0.50196081;"
         offset="0"
         id="stop3913" />
      <stop
         style="stop-color:#ffffff;stop-opacity:0;"
         offset="1"
         id="stop3915" />
    </linearGradient>
    <linearGradient
       id="linearGradient3865">
      <stop
         style="stop-color:#171717;stop-opacity:1;"
         offset="0"
         id="stop3867" />
      <stop
         style="stop-color:#555555;stop-opacity:1;"
         offset="1"
         id="stop3869" />
    </linearGradient>
    <linearGradient
       id="linearGradient3855">
      <stop
         style="stop-color:#6699ff;stop-opacity:1;"
         offset="0"
         id="stop3857" />
      <stop
         id="stop3863"
         offset="0.5"
         style="stop-color:#1965ff;stop-opacity:1;" />
      <stop
         style="stop-color:#6699ff;stop-opacity:1;"
         offset="1"
         id="stop3859" />
    </linearGradient>
    <linearGradient
       id="linearGradient3845">
      <stop
         style="stop-color:#44cc00;stop-opacity:1;"
         offset="0"
         id="stop3847" />
      <stop
         id="stop3853"
         offset="0.5"
         style="stop-color:#329800;stop-opacity:1;" />
      <stop
         style="stop-color:#44cc00;stop-opacity:1;"
         offset="1"
         id="stop3849" />
    </linearGradient>
    <linearGradient
       id="linearGradient3835">
      <stop
         style="stop-color:#ff33ff;stop-opacity:1;"
         offset="0"
         id="stop3837" />
      <stop
         id="stop3843"
         offset="0.5"
         style="stop-color:#cc00ca;stop-opacity:1;" />
      <stop
         style="stop-color:#ff33ff;stop-opacity:1;"
         offset="1"
         id="stop3839" />
    </linearGradient>
    <linearGradient
       id="linearGradient3807">
      <stop
         style="stop-color:#f7f76e;stop-opacity:1;"
         offset="0"
         id="stop3809" />
      <stop
         id="stop3815"
         offset="0.5"
         style="stop-color:#cacc00;stop-opacity:1;" />
      <stop
         style="stop-color:#f7f76e;stop-opacity:1;"
         offset="1"
         id="stop3811" />
    </linearGradient>
    <linearGradient
       id="linearGradient3791">
      <stop
         style="stop-color:#ff5b4d;stop-opacity:1;"
         offset="0"
         id="stop3793" />
      <stop
         id="stop3799"
         offset="0.5"
         style="stop-color:#cc1300;stop-opacity:1;" />
      <stop
         style="stop-color:#ff5b4d;stop-opacity:1;"
         offset="1"
         id="stop3795" />
    </linearGradient>
    <linearGradient
       id="linearGradient4084">
      <stop
         style="stop-color:#cc1300;stop-opacity:0.2;"
         offset="0"
         id="stop4086" />
      <stop
         style="stop-color:#cc1300;stop-opacity:0;"
         offset="1"
         id="stop4088" />
    </linearGradient>
    <radialGradient
       inkscape:collect="always"
       xlink:href="#linearGradient3807"
       id="radialGradient3089"
       gradientUnits="userSpaceOnUse"
       gradientTransform="matrix(1.9999999,-4.8611449e-8,4.8611446e-8,1.9999999,-3.4999996,-2.4999996)"
       cx="3.5"
       cy="2.125"
       fx="3.5"
       fy="2.125"
       r="1.5" />
    <radialGradient
       inkscape:collect="always"
       xlink:href="#linearGradient3835"
       id="radialGradient3091"
       gradientUnits="userSpaceOnUse"
       gradientTransform="matrix(1.9999999,-1.0138921e-7,1.0138921e-7,2,-3.4999998,-2.4999995)"
       cx="3.5"
       cy="2.125"
       fx="3.5"
       fy="2.125"
       r="1.5" />
    <radialGradient
       inkscape:collect="always"
       xlink:href="#linearGradient3845"
       id="radialGradient3093"
       gradientUnits="userSpaceOnUse"
       gradientTransform="matrix(1.9999999,-1.0138895e-7,1.0138896e-7,2,-3.4999998,-2.4999995)"
       cx="3.5"
       cy="2.125"
       fx="3.5"
       fy="2.125"
       r="1.5" />
    <linearGradient
       inkscape:collect="always"
       xlink:href="#linearGradient3911"
       id="linearGradient3097"
       gradientUnits="userSpaceOnUse"
       x1="16"
       y1="16"
       x2="16"
       y2="0" />
    <linearGradient
       inkscape:collect="always"
       xlink:href="#linearGradient3865"
       id="linearGradient3900"
       x1="0.28905129"
       y1="5.5844054"
       x2="0.28905129"
       y2="0.18246913"
       gradientUnits="userSpaceOnUse" />
    <clipPath
       clipPathUnits="userSpaceOnUse"
       id="clipPath4229">
      <path
         transform="matrix(3.6721407,0,0,2.961901,8.938563,-6.5404555)"
         d="m 0.22097099,2.8834372 a 2.1104856,2.6165628 0 1 1 -4.22097109,0 2.1104856,2.6165628 0 1 1 4.22097109,0 z"
         sodipodi:ry="2.6165628"
         sodipodi:rx="2.1104856"
         sodipodi:cy="2.8834372"
         sodipodi:cx="-1.8895146"
         id="path4231"
         style="fill:#ff1cfc;fill-opacity:0.3413655;stroke:none"
         sodipodi:type="arc" />
    </clipPath>
    <clipPath
       clipPathUnits="userSpaceOnUse"
       id="clipPath4233">
      <path
         transform="matrix(3.6721407,0,0,2.961901,18.638563,-0.5404555)"
         d="m 0.22097099,2.8834372 a 2.1104856,2.6165628 0 1 1 -4.22097109,0 2.1104856,2.6165628 0 1 1 4.22097109,0 z"
         sodipodi:ry="2.6165628"
         sodipodi:rx="2.1104856"
         sodipodi:cy="2.8834372"
         sodipodi:cx="-1.8895146"
         id="path4235"
         style="fill:#ff1cfc;fill-opacity:0.3413655;stroke:none"
         sodipodi:type="arc" />
    </clipPath>
    <clipPath
       clipPathUnits="userSpaceOnUse"
       id="clipPath4237">
      <path
         transform="matrix(3.4426318,0,0,2.7767821,6.5361527,-0.30355171)"
         d="m 0.22097099,2.8834372 a 2.1104856,2.6165628 0 1 1 -4.22097109,0 2.1104856,2.6165628 0 1 1 4.22097109,0 z"
         sodipodi:ry="2.6165628"
         sodipodi:rx="2.1104856"
         sodipodi:cy="2.8834372"
         sodipodi:cx="-1.8895146"
         id="path4239"
         style="fill:#ff1cfc;fill-opacity:0.3413655;stroke:none"
         sodipodi:type="arc" />
    </clipPath>
    <clipPath
       clipPathUnits="userSpaceOnUse"
       id="clipPath4241">
      <path
         transform="matrix(3.1801671,1.8360704,-1.4809505,2.5650815,13.207403,7.0012332)"
         d="m 0.22097099,2.8834372 a 2.1104856,2.6165628 0 1 1 -4.22097109,0 2.1104856,2.6165628 0 1 1 4.22097109,0 z"
         sodipodi:ry="2.6165628"
         sodipodi:rx="2.1104856"
         sodipodi:cy="2.8834372"
         sodipodi:cx="-1.8895146"
         id="path4243"
         style="fill:#ff1cfc;fill-opacity:0.3413655;stroke:none"
         sodipodi:type="arc" />
    </clipPath>
    <linearGradient
       inkscape:collect="always"
       xlink:href="#linearGradient4084"
       id="linearGradient4434"
       gradientUnits="userSpaceOnUse"
       gradientTransform="translate(-8.4717979,1.7779452)"
       x1="10.864102"
       y1="18.078461"
       x2="18.864103"
       y2="4.222055" />
    <radialGradient
       inkscape:collect="always"
       xlink:href="#linearGradient3855"
       id="radialGradient4438"
       gradientUnits="userSpaceOnUse"
       gradientTransform="matrix(1.9999999,-4.2708439e-8,4.2708439e-8,2,-3.4999997,-1.7499998)"
       cx="3.5"
       cy="1.75"
       fx="3.5"
       fy="1.75"
       r="1.5" />
    <linearGradient
       inkscape:collect="always"
       xlink:href="#linearGradient4641"
       id="linearGradient4440"
       gradientUnits="userSpaceOnUse"
       x1="14"
       y1="16"
       x2="14"
       y2="-3" />
    <radialGradient
       inkscape:collect="always"
       xlink:href="#linearGradient3791"
       id="radialGradient3553"
       gradientUnits="userSpaceOnUse"
       gradientTransform="matrix(1.9999999,-1.8026347e-8,1.8026346e-8,2,-3.4999997,-1.796875)"
       cx="3.5"
       cy="1.7968751"
       fx="3.5"
       fy="1.7968751"
       r="1.5" />
  </defs>
  <metadata
     id="metadata7">
    <rdf:RDF>
      <cc:Work
         rdf:about="">
        <dc:format>image/svg+xml</dc:format>
        <dc:type
           rdf:resource="http://purl.org/dc/dcmitype/StillImage" />
        <dc:title />
      </cc:Work>
    </rdf:RDF>
  </metadata>
  <g
     id="g4245"
     transform="scale(7.5,7.5)">
    <path
       transform="matrix(3.6721407,0,0,2.961901,14.938563,-0.5404555)"
       d="M 0.22097099,2.8834372 C 0.22097099,4.3285249 -0.72392558,5.5 -1.8895146,5.5 c -1.165589,0 -2.1104855,-1.1714751 -2.1104855,-2.6165628 0,-1.4450878 0.9448965,-2.61656289 2.1104855,-2.61656289 1.16558902,0 2.11048559,1.17147509 2.11048559,2.61656289 z"
       sodipodi:ry="2.6165628"
       sodipodi:rx="2.1104856"
       sodipodi:cy="2.8834372"
       sodipodi:cx="-1.8895146"
       id="path3116"
       style="fill:url(#linearGradient3900);fill-opacity:1;stroke:none"
       sodipodi:type="arc" />
    <rect
       clip-path="none"
       width="16"
       height="16"
       ry="0"
       x="0"
       y="0"
       id="rect3938"
       style="fill:#000000;fill-opacity:0;stroke:none" />
    <rect
       clip-path="url(#clipPath4241)"
       inkscape:transform-center-x="3.1821799"
       transform="matrix(0.8660254,-0.50000001,0.50000001,0.8660254,-2.0602131e-7,3.4034962e-7)"
       inkscape:transform-center-y="-6.274999"
       ry="0"
       y="-0.22205363"
       x="-1.4717976"
       height="16"
       width="3.2"
       id="rect4082"
       style="fill:url(#linearGradient4434);fill-opacity:1;stroke:none" />
    <path
       clip-path="none"
       transform="matrix(1.0666667,0,0,1.0666667,4.2666666,-0.216667)"
       sodipodi:type="arc"
       style="fill:url(#radialGradient3553);fill-opacity:1;stroke:none"
       id="path3950"
       sodipodi:cx="3.5"
       sodipodi:cy="2.5"
       sodipodi:rx="1.5"
       sodipodi:ry="1.5"
       d="M 5,2.5 C 5,3.3284271 4.3284271,4 3.5,4 2.6715729,4 2,3.3284271 2,2.5 2,1.6715729 2.6715729,1 3.5,1 4.3284271,1 5,1.6715729 5,2.5 z" />
    <path
       clip-path="none"
       transform="matrix(1.0666667,0,0,1.0666667,2.4166666,2.983333)"
       sodipodi:type="arc"
       style="fill:url(#radialGradient3089);fill-opacity:1;stroke:none"
       id="path3943"
       sodipodi:cx="3.5"
       sodipodi:cy="2.5"
       sodipodi:rx="1.5"
       sodipodi:ry="1.5"
       d="M 5,2.5 C 5,3.3284271 4.3284271,4 3.5,4 2.6715729,4 2,3.3284271 2,2.5 2,1.6715729 2.6715729,1 3.5,1 4.3284271,1 5,1.6715729 5,2.5 z" />
    <path
       clip-path="none"
       d="M 5,2.5 C 5,3.3284271 4.3284271,4 3.5,4 2.6715729,4 2,3.3284271 2,2.5 2,1.6715729 2.6715729,1 3.5,1 4.3284271,1 5,1.6715729 5,2.5 z"
       sodipodi:ry="1.5"
       sodipodi:rx="1.5"
       sodipodi:cy="2.5"
       sodipodi:cx="3.5"
       id="path3956"
       style="fill:url(#radialGradient3091);fill-opacity:1;stroke:none"
       sodipodi:type="arc"
       transform="matrix(1.0666667,0,0,1.0666667,6.1166666,2.983333)" />
    <path
       clip-path="none"
       transform="matrix(1.0666667,0,0,1.0666667,9.8166666,2.983333)"
       sodipodi:type="arc"
       style="fill:url(#radialGradient3093);fill-opacity:1;stroke:none"
       id="path3954"
       sodipodi:cx="3.5"
       sodipodi:cy="2.5"
       sodipodi:rx="1.5"
       sodipodi:ry="1.5"
       d="M 5,2.5 C 5,3.3284271 4.3284271,4 3.5,4 2.6715729,4 2,3.3284271 2,2.5 2,1.6715729 2.6715729,1 3.5,1 4.3284271,1 5,1.6715729 5,2.5 z" />
    <path
       clip-path="url(#clipPath4237)"
       d="M 5,2.5 C 5,3.3284271 4.3284271,4 3.5,4 2.6715729,4 2,3.3284271 2,2.5 2,1.6715729 2.6715729,1 3.5,1 4.3284271,1 5,1.6715729 5,2.5 z"
       sodipodi:ry="1.5"
       sodipodi:rx="1.5"
       sodipodi:cy="2.5"
       sodipodi:cx="3.5"
       id="path3945"
       style="fill:url(#radialGradient4438);fill-opacity:1;stroke:none"
       sodipodi:type="arc"
       transform="matrix(1.0666667,0,0,1.0666667,7.9666666,-0.216667)" />
    <use
       clip-path="url(#clipPath4233)"
       height="16"
       width="16"
       transform="translate(-3.7,0)"
       id="use3801"
       xlink:href="#path3950"
       y="0"
       x="0" />
    <use
       height="16"
       width="16"
       transform="translate(-5.55,3.2)"
       id="use3803"
       xlink:href="#path3950"
       y="0"
       x="0" />
    <use
       height="16"
       width="16"
       transform="translate(0,11.1)"
       id="use3805"
       xlink:href="#path3950"
       y="0"
       x="0" />
    <path
       d="m 15.5,8 c 0,4.142136 -3.357864,7.5 -7.5,7.5 C 3.8578644,15.5 0.5,12.142136 0.5,8 0.5,3.8578644 3.8578644,0.5 8,0.5 c 4.142136,0 7.5,3.3578644 7.5,7.5 z"
       sodipodi:ry="7.5"
       sodipodi:rx="7.5"
       sodipodi:cy="8"
       sodipodi:cx="8"
       id="path3909"
       style="fill:none;stroke:url(#linearGradient3097);stroke-width:0.5;stroke-linecap:round;stroke-linejoin:round;stroke-miterlimit:4;stroke-opacity:0.44578313;stroke-dasharray:none;stroke-dashoffset:0"
       sodipodi:type="arc" />
    <path
       clip-path="url(#clipPath4229)"
       transform="translate(6,6)"
       d="M 19,6.5 C 19,11.746705 14.746705,16 9.5,16 4.2532949,16 0,11.746705 0,6.5 0,1.2532949 4.2532949,-3 9.5,-3 14.746705,-3 19,1.2532949 19,6.5 z"
       sodipodi:ry="9.5"
       sodipodi:rx="9.5"
       sodipodi:cy="6.5"
       sodipodi:cx="9.5"
       id="path3235"
       style="fill:url(#linearGradient4440);fill-opacity:1;stroke:none"
       sodipodi:type="arc" />
  </g>
</svg>
